<?xml version="1.0" encoding="UTF-8"?>
<svg xmlns="http://www.w3.org/2000/svg" xmlns:xlink="http://www.w3.org/1999/xlink" viewBox="0 0 100 100" width="100px" height="100px">
<g id="surface590742">
<path style=" stroke:none;fill-rule:nonzero;fill:rgb(20%,37.254903%,88.235295%);fill-opacity:1;" d="M 97.78125 15.199219 C 97.539062 14.738281 97.101562 14.378906 96.601562 14.21875 L 92.480469 12.921875 C 91.5 12.621094 90.441406 13.199219 90.039062 14.140625 C 90.039062 14.140625 89.960938 14.160156 89.761719 14.160156 C 89.078125 14.160156 87.941406 12.839844 87.421875 11.898438 C 87.261719 11.601562 87.019531 11.359375 86.738281 11.160156 C 84.28125 9.621094 77.660156 6 69.160156 6 C 58.539062 6 51.5 9.039062 51.199219 9.160156 C 50.339844 9.539062 49.839844 10.480469 50.039062 11.421875 C 50.238281 12.339844 51.058594 13 52 13 C 60.441406 13 62.898438 14.359375 65.699219 16.441406 C 66.21875 16.820312 66.859375 17.441406 67.421875 18.261719 L 3.71875 28.078125 L 13.738281 94.300781 L 46.101562 89.140625 C 46.21875 89.621094 46.378906 90.121094 46.601562 90.578125 C 47.441406 92.359375 49.019531 93.71875 50.921875 94.320312 L 54.921875 95.539062 C 55.878906 95.839844 56.820312 95.980469 57.71875 95.980469 C 58.859375 95.980469 59.921875 95.738281 60.839844 95.21875 C 62.28125 94.441406 63.300781 93.058594 63.761719 91.320312 C 63.800781 91.238281 64.398438 89.199219 65.320312 86.078125 L 94.28125 81.460938 L 85.261719 24.441406 C 85.398438 24.378906 85.539062 24.320312 85.660156 24.320312 L 85.679688 24.320312 C 86.261719 24.320312 86.441406 24.421875 86.441406 24.421875 C 86.539062 24.5 86.621094 24.558594 86.679688 24.621094 C 86.660156 25.5 87.21875 26.300781 88.078125 26.578125 L 92.199219 27.898438 C 93.238281 28.21875 94.378906 27.640625 94.71875 26.601562 L 97.898438 16.738281 C 98.058594 16.238281 98.019531 15.679688 97.78125 15.199219 Z M 45.839844 34.121094 L 47.539062 32.699219 C 48.5 31.898438 49.898438 32.019531 50.71875 32.941406 L 58.820312 42.238281 L 63.621094 47.539062 L 60.621094 54.21875 L 45.578125 37.179688 C 44.78125 36.28125 44.898438 34.898438 45.839844 34.121094 Z M 39.320312 40.21875 C 39.800781 39.101562 41.101562 38.558594 42.238281 39.019531 L 44.339844 39.839844 C 45.480469 40.300781 46.019531 41.558594 45.558594 42.679688 L 44.339844 45.621094 L 38.121094 43.140625 Z M 21.199219 54.941406 L 31.378906 53.359375 L 28.421875 60.441406 L 22.21875 61.398438 Z M 33.578125 70.859375 L 26.640625 78.941406 L 27.621094 68.441406 L 27.679688 68.058594 L 28.039062 68.179688 L 33.820312 70.5 C 33.761719 70.621094 33.699219 70.761719 33.578125 70.859375 Z M 28.5 66.019531 L 37.261719 45.140625 L 43.480469 47.640625 L 34.699219 68.480469 Z M 41.339844 58.460938 L 44.339844 51.378906 L 53.621094 49.960938 L 58.738281 55.800781 Z M 75.300781 68.480469 C 75.300781 68.480469 74.480469 66 70.179688 64.679688 C 69.980469 64.621094 69.78125 64.558594 69.601562 64.480469 L 72 56.820312 C 73.480469 57.5 76.398438 59.339844 76.398438 63.460938 C 76.398438 66.980469 75.300781 68.480469 75.300781 68.480469 Z M 73 53.5 L 75.019531 46.558594 L 75.140625 46.539062 L 76.21875 53 Z M 91.519531 23.480469 L 90.539062 23.160156 C 90.160156 22.21875 89.378906 21.621094 88.839844 21.21875 C 88.058594 20.640625 87.058594 20.339844 85.761719 20.320312 L 85.660156 20.320312 C 79.941406 20.320312 77.199219 30.21875 72.660156 46.539062 C 71.941406 49.058594 71.21875 51.71875 70.421875 54.441406 C 67.480469 64.699219 60 89.921875 59.921875 90.21875 C 59.71875 90.960938 59.378906 91.460938 58.921875 91.71875 C 58.261719 92.078125 57.261719 92.078125 56.078125 91.71875 L 52.101562 90.5 C 51.261719 90.238281 50.578125 89.640625 50.199219 88.839844 C 49.820312 88.058594 49.800781 87.160156 50.101562 86.378906 C 50.101562 86.378906 59.339844 63.578125 63.160156 54.121094 C 67.261719 43.878906 72.078125 31.238281 72.921875 24.421875 C 73.5 19.601562 70.921875 15.320312 68.078125 13.238281 C 66.460938 12.019531 64.898438 11.078125 62.921875 10.378906 C 64.800781 10.160156 66.898438 10 69.160156 10 C 76.320312 10 82.078125 13.019531 84.179688 14.300781 C 84.921875 15.480469 86.921875 18.160156 89.761719 18.160156 C 90.660156 18.160156 91.738281 17.960938 92.621094 17.160156 L 93.480469 17.421875 Z M 91.519531 23.480469 "/>
</g>
</svg>
